<svg width="159" height="142" viewBox="0 0 159 142" fill="none" xmlns="http://www.w3.org/2000/svg">
<path d="M145.833 116.833C149.043 116.835 152.13 118.071 154.453 120.287C156.776 122.502 158.158 125.526 158.313 128.732C158.467 131.939 157.382 135.082 155.282 137.51C153.182 139.938 150.228 141.465 147.033 141.775L145.833 141.833H12.5C9.28986 141.832 6.20338 140.595 3.88011 138.38C1.55685 136.164 0.1749 133.14 0.0206312 129.934C-0.133638 126.727 0.951598 123.585 3.05146 121.156C5.15133 118.728 8.10484 117.201 11.3 116.891L12.5 116.833H145.833ZM145.833 58.4998C149.149 58.4998 152.328 59.8168 154.672 62.161C157.016 64.5052 158.333 67.6846 158.333 70.9998C158.333 74.315 157.016 77.4945 154.672 79.8387C152.328 82.1829 149.149 83.4998 145.833 83.4998H12.5C9.18479 83.4998 6.00537 82.1829 3.66117 79.8387C1.31696 77.4945 0 74.315 0 70.9998C0 67.6846 1.31696 64.5052 3.66117 62.161C6.00537 59.8168 9.18479 58.4998 12.5 58.4998H145.833ZM145.833 0.166504C149.149 0.166504 152.328 1.48346 154.672 3.82767C157.016 6.17187 158.333 9.3513 158.333 12.6665C158.333 15.9817 157.016 19.1611 154.672 21.5053C152.328 23.8495 149.149 25.1665 145.833 25.1665H12.5C9.18479 25.1665 6.00537 23.8495 3.66117 21.5053C1.31696 19.1611 0 15.9817 0 12.6665C0 9.3513 1.31696 6.17187 3.66117 3.82767C6.00537 1.48346 9.18479 0.166504 12.5 0.166504H145.833Z" fill="black"/>
</svg>
