<?xml version="1.0" encoding="iso-8859-1"?>
<!-- Generator: Adobe Illustrator 27.1.1, SVG Export Plug-In . SVG Version: 6.00 Build 0)  -->
<svg version="1.1" id="Layer_1" xmlns="http://www.w3.org/2000/svg" xmlns:xlink="http://www.w3.org/1999/xlink" x="0px" y="0px"
	 width="400px" height="250px" viewBox="0 0 400 250" enable-background="new 0 0 400 250" xml:space="preserve">
<g display="none">
	<rect display="inline" width="400" height="250"/>
</g>
<g>
	<path fill="#FFFFFF" d="M235.773,49.582c2.193,0,3.971,1.778,3.971,3.971v121.603c0,2.193,1.778,3.971,3.971,3.971l105.171-5.38
		c2.193,0,3.971,1.778,3.971,3.971v21.593c0,2.193-1.778,3.971-3.971,3.971H182.865c-1.153,0-2.249-0.501-3.003-1.373
		l-41.096-47.497c-0.732-0.846-1.786-1.343-2.903-1.372l-61.019-1.534c-0.034-0.001-0.068-0.001-0.102-0.001
		c-2.195,0-3.982,1.788-3.969,3.995l0.261,43.787c0.013,2.203-1.769,3.995-3.971,3.995H51.496c-2.193,0-3.971-1.778-3.971-3.971
		V53.554c0-2.193,1.778-3.971,3.971-3.971h45.291c1.023,0,2.006,0.395,2.745,1.102l93.942,104.249c0.801,0.766,1.77,1.11,2.719,1.11
		c2.044,0,3.998-1.592,3.998-3.979v-98.51c0-2.193,1.778-3.971,3.971-3.971H235.773 M74.666,135.835h42.946
		c3.415,0,5.237-4.025,2.984-6.591L77.651,80.327c-0.825-0.939-1.896-1.359-2.95-1.359c-2.035,0-4.005,1.566-4.005,3.979v48.916
		C70.695,134.057,72.473,135.835,74.666,135.835 M235.773,46.582h-31.611c-3.844,0-6.971,3.127-6.971,6.971v98.51
		c0,0.799-0.739,0.979-0.998,0.979c-0.215,0-0.407-0.074-0.586-0.225L101.761,48.676c-0.05-0.055-0.101-0.108-0.155-0.159
		c-1.304-1.247-3.015-1.934-4.82-1.934H51.496c-3.844,0-6.971,3.127-6.971,6.971v145.758c0,3.844,3.127,6.971,6.971,6.971h15.566
		c1.87,0,3.626-0.73,4.944-2.057s2.038-3.086,2.027-4.956l-0.261-43.787c-0.002-0.334,0.152-0.56,0.282-0.69
		c0.106-0.107,0.337-0.287,0.687-0.287l61.045,1.534c0.273,0.007,0.532,0.129,0.71,0.335l41.096,47.497
		c1.325,1.531,3.247,2.41,5.272,2.41h166.022c3.844,0,6.971-3.127,6.971-6.971v-21.593c0-3.844-3.127-6.971-6.971-6.971
		c-0.051,0-0.102,0.001-0.153,0.004l-105.069,5.375c-0.512-0.027-0.92-0.452-0.92-0.97V53.554
		C242.745,49.71,239.617,46.582,235.773,46.582L235.773,46.582z M74.666,132.835c-0.536,0-0.971-0.436-0.971-0.971V82.947
		c0-0.803,0.726-0.979,1.005-0.979c0.272,0,0.493,0.108,0.696,0.338l42.946,48.916c0.36,0.41,0.251,0.828,0.155,1.041
		c-0.096,0.213-0.34,0.571-0.885,0.571H74.666L74.666,132.835z"/>
</g>
</svg>
