<?xml version="1.0" encoding="UTF-8"?>
<svg id="Layer_1" data-name="Layer 1" xmlns="http://www.w3.org/2000/svg" viewBox="0 0 297.98 581.04">
  <defs>
    <style>
      .cls-1 {
        fill: #fff;
      }

      .cls-2 {
        fill: #1d1d1b;
      }
    </style>
  </defs>
  <g>
    <path class="cls-2" d="m111.61,561.35c0,.96-.3,1.74-.89,2.34s-1.37.91-2.33.91h-11.54c-.96,0-1.74-.3-2.36-.91s-.92-1.39-.92-2.34v-11.63h4.07v11.28h9.9v-10.93l-12.66-15.29c-.88-1.05-1.32-2.22-1.32-3.49v-9.29c0-.96.31-1.74.92-2.34s1.4-.91,2.36-.91h11.54c.96,0,1.73.3,2.33.91s.89,1.39.89,2.34v10.66h-4.07v-10.31h-9.9v9.67l12.71,15.29c.84,1.02,1.26,2.16,1.26,3.43v10.61Z"/>
    <path class="cls-2" d="m128.6,564.6h-5.54c-2.19,0-3.28-1.1-3.28-3.31v-21.77h-3.43v-3.43h3.43v-8.88h3.84v8.88h4.98v3.43h-4.98v21.65h4.98v3.43Z"/>
    <path class="cls-2" d="m149.9,564.6h-3.84v-.79c-1.56.21-3.12.42-4.66.62-1.88.23-3.43.35-4.66.35-2.11,0-3.16-1.05-3.16-3.16v-25.52h3.84v25.02l8.64-.23v-24.79h3.84v28.51Z"/>
    <path class="cls-2" d="m172.46,564.6h-3.87v-.79c-4.18.64-6.49.97-6.94.97-1.66,0-3-.56-4.01-1.68s-1.52-2.52-1.52-4.2v-16.67c0-1.76.58-3.22,1.73-4.38s2.6-1.74,4.34-1.74h6.42v-17.34h3.87v45.85Zm-3.87-3.54v-21.53h-5.39c-2.15,0-3.22,1.1-3.22,3.31v15.23c0,2.19,1.07,3.28,3.22,3.28.51,0,2.3-.1,5.39-.29Z"/>
    <path class="cls-2" d="m183.01,529.86h-3.96v-4.92h3.96v4.92Zm-.06,34.75h-3.84v-28.51h3.84v28.51Z"/>
    <path class="cls-2" d="m205.95,561.29c0,2.21-1.1,3.31-3.31,3.31h-9.79c-2.19,0-3.28-1.1-3.28-3.31v-21.88c0-2.21,1.09-3.31,3.28-3.31h9.79c2.21,0,3.31,1.1,3.31,3.31v21.88Zm-3.9-.12v-21.65h-8.58v21.65h8.58Z"/>
  </g>
  <circle class="cls-2" cx="258.62" cy="541.68" r="39.36"/>
  <g>
    <path class="cls-1" d="m249.24,561.35c0,.96-.3,1.74-.91,2.34-.61.61-1.39.91-2.34.91h-11.81c-.96,0-1.74-.3-2.34-.91-.61-.6-.91-1.39-.91-2.34v-11.63h4.07v11.28h10.14v-14.03l-8.09-6.06v-.91l8.03-5.98v-11.66h-10.02v10.31h-4.07v-10.66c0-.96.3-1.74.91-2.34s1.39-.91,2.34-.91h11.69c.96,0,1.74.3,2.34.91s.91,1.39.91,2.34v11.16c0,1.46-.59,2.61-1.76,3.43l-5.45,3.84,5.51,3.84c1.17.8,1.76,1.96,1.76,3.49v13.59Z"/>
    <path class="cls-1" d="m260.82,564.6h-4.1v-31.79h-1.79v-.15l2.58-13.92h3.31v45.85Z"/>
    <path class="cls-1" d="m286.74,561.35c0,.96-.3,1.74-.91,2.34-.61.61-1.39.91-2.34.91h-11.81c-.96,0-1.74-.3-2.34-.91-.61-.6-.91-1.39-.91-2.34v-11.63h4.07v11.28h10.14v-14.03l-8.09-6.06v-.91l8.03-5.98v-11.66h-10.02v10.31h-4.07v-10.66c0-.96.3-1.74.91-2.34s1.39-.91,2.34-.91h11.69c.96,0,1.74.3,2.34.91s.91,1.39.91,2.34v11.16c0,1.46-.59,2.61-1.76,3.43l-5.45,3.84,5.51,3.84c1.17.8,1.76,1.96,1.76,3.49v13.59Z"/>
  </g>
  <g>
    <g>
      <path class="cls-2" d="m25.34,82.88c0,1.34-.42,2.44-1.25,3.29s-1.93,1.28-3.27,1.28H4.61c-1.34,0-2.45-.43-3.31-1.28s-1.3-1.95-1.3-3.29v-16.33h5.72v15.84h13.9v-15.34L1.85,45.57c-1.23-1.48-1.85-3.11-1.85-4.89v-13.04c0-1.34.43-2.44,1.3-3.29s1.97-1.28,3.31-1.28h16.21c1.34,0,2.43.43,3.27,1.28s1.25,1.95,1.25,3.29v14.97h-5.72v-14.48H5.72v13.57l17.85,21.47c1.18,1.43,1.77,3.03,1.77,4.81v14.89Z"/>
      <path class="cls-2" d="m49.19,87.45h-7.77c-3.07,0-4.61-1.55-4.61-4.65v-30.56h-4.81v-4.81h4.81v-12.46h5.39v12.46h6.99v4.81h-6.99v30.4h6.99v4.81Z"/>
      <path class="cls-2" d="m79.1,87.45h-5.39v-1.11c-2.19.3-4.37.59-6.54.86-2.63.33-4.81.49-6.54.49-2.96,0-4.44-1.48-4.44-4.44v-35.83h5.39v35.13l12.13-.33v-34.8h5.39v40.02Z"/>
      <path class="cls-2" d="m110.77,87.45h-5.43v-1.11c-5.87.9-9.12,1.36-9.75,1.36-2.33,0-4.21-.79-5.64-2.37s-2.14-3.54-2.14-5.9v-23.4c0-2.47.81-4.52,2.43-6.15s3.65-2.45,6.09-2.45h9.01v-24.35h5.43v64.37Zm-5.43-4.98v-30.23h-7.57c-3.02,0-4.52,1.55-4.52,4.65v21.39c0,3.07,1.51,4.61,4.52,4.61.71,0,3.24-.14,7.57-.41Z"/>
      <path class="cls-2" d="m125.58,38.66h-5.55v-6.91h5.55v6.91Zm-.08,48.78h-5.39v-40.02h5.39v40.02Z"/>
      <path class="cls-2" d="m157.79,82.8c0,3.1-1.55,4.65-4.65,4.65h-13.74c-3.07,0-4.61-1.55-4.61-4.65v-30.73c0-3.1,1.54-4.65,4.61-4.65h13.74c3.1,0,4.65,1.55,4.65,4.65v30.73Zm-5.47-.16v-30.4h-12.05v30.4h12.05Z"/>
    </g>
    <circle class="cls-2" cx="231.74" cy="55.26" r="55.26"/>
    <g>
      <path class="cls-1" d="m218.57,82.88c0,1.34-.43,2.44-1.28,3.29-.85.85-1.95,1.28-3.29,1.28h-16.58c-1.34,0-2.44-.43-3.29-1.28-.85-.85-1.28-1.95-1.28-3.29v-16.33h5.72v15.84h14.23v-19.7l-11.35-8.51v-1.28l11.27-8.39v-16.37h-14.07v14.48h-5.72v-14.97c0-1.34.43-2.44,1.28-3.29s1.95-1.28,3.29-1.28h16.41c1.34,0,2.44.43,3.29,1.28s1.28,1.95,1.28,3.29v15.67c0,2.06-.82,3.66-2.47,4.81l-7.65,5.39,7.73,5.39c1.65,1.12,2.47,2.76,2.47,4.89v19.09Z"/>
      <path class="cls-1" d="m234.82,87.44h-5.76v-44.63h-2.51v-.21l3.62-19.54h4.65v64.37Z"/>
      <path class="cls-1" d="m271.22,82.88c0,1.34-.43,2.44-1.28,3.29-.85.85-1.95,1.28-3.29,1.28h-16.58c-1.34,0-2.44-.43-3.29-1.28-.85-.85-1.28-1.95-1.28-3.29v-16.33h5.72v15.84h14.23v-19.7l-11.35-8.51v-1.28l11.27-8.39v-16.37h-14.07v14.48h-5.72v-14.97c0-1.34.43-2.44,1.28-3.29s1.95-1.28,3.29-1.28h16.41c1.34,0,2.44.43,3.29,1.28s1.28,1.95,1.28,3.29v15.67c0,2.06-.82,3.66-2.47,4.81l-7.65,5.39,7.73,5.39c1.65,1.12,2.47,2.76,2.47,4.89v19.09Z"/>
    </g>
  </g>
</svg>