<?xml version="1.0" encoding="utf-8"?>
<!-- Generator: Adobe Illustrator 27.7.0, SVG Export Plug-In . SVG Version: 6.00 Build 0)  -->
<svg version="1.1" id="Layer_1" xmlns="http://www.w3.org/2000/svg" xmlns:xlink="http://www.w3.org/1999/xlink" x="0px" y="0px"
	 viewBox="0 0 300 200" style="enable-background:new 0 0 300 200;" xml:space="preserve">
<style type="text/css">
	.st0{fill:#1A1A1A;}
	.st1{fill:#FFFFFF;}
</style>
<g>
	<g>
		<path class="st0" d="M31.8,127.6c0,1.3-0.4,2.4-1.2,3.3c-0.8,0.9-1.9,1.3-3.3,1.3H11.1c-1.3,0-2.5-0.4-3.3-1.3s-1.3-1.9-1.3-3.3
			v-16.3h5.7v15.8h13.9v-15.3L8.4,90.3c-1.2-1.5-1.9-3.1-1.9-4.9v-13c0-1.3,0.4-2.4,1.3-3.3s2-1.3,3.3-1.3h16.2
			c1.3,0,2.4,0.4,3.3,1.3s1.2,1.9,1.2,3.3v15h-5.7V72.9H12.2v13.6l17.9,21.5c1.2,1.4,1.8,3,1.8,4.8V127.6z"/>
		<path class="st0" d="M55.7,132.2h-7.8c-3.1,0-4.6-1.5-4.6-4.6V97h-4.8v-4.8h4.8V79.7h5.4v12.5h7V97h-7v30.4h7L55.7,132.2
			L55.7,132.2z"/>
		<path class="st0" d="M85.6,132.2h-5.4v-1.1c-2.2,0.3-4.4,0.6-6.5,0.9c-2.6,0.3-4.8,0.5-6.5,0.5c-3,0-4.4-1.5-4.4-4.4V92.1h5.4
			v35.1l12.1-0.3V92.1h5.4V132.2z"/>
		<path class="st0" d="M117.3,132.2h-5.4v-1.1c-5.9,0.9-9.1,1.4-9.8,1.4c-2.3,0-4.2-0.8-5.6-2.4s-2.1-3.5-2.1-5.9v-23.4
			c0-2.5,0.8-4.5,2.4-6.1s3.6-2.4,6.1-2.4h9V67.8h5.4L117.3,132.2L117.3,132.2z M111.8,127.2V97h-7.6c-3,0-4.5,1.6-4.5,4.6V123
			c0,3.1,1.5,4.6,4.5,4.6C105,127.6,107.5,127.5,111.8,127.2z"/>
		<path class="st0" d="M132.1,83.4h-5.5v-6.9h5.5V83.4z M132,132.2h-5.4v-40h5.4V132.2z"/>
		<path class="st0" d="M164.3,127.5c0,3.1-1.5,4.6-4.7,4.6h-13.7c-3.1,0-4.6-1.5-4.6-4.6V96.8c0-3.1,1.5-4.6,4.6-4.6h13.7
			c3.1,0,4.7,1.6,4.7,4.6L164.3,127.5L164.3,127.5z M158.8,127.4V97h-12v30.4H158.8z"/>
	</g>
	<g>
		<circle class="st0" cx="238.2" cy="100" r="55.3"/>
	</g>
	<g>
		<g>
			<path class="st1" d="M225.1,127.6c0,1.3-0.4,2.4-1.3,3.3c-0.8,0.9-2,1.3-3.3,1.3h-16.6c-1.3,0-2.4-0.4-3.3-1.3
				c-0.8-0.8-1.3-1.9-1.3-3.3v-16.3h5.7v15.8h14.2v-19.7l-11.3-8.5v-1.3l11.3-8.4V72.9h-14.1v14.5h-5.7v-15c0-1.3,0.4-2.4,1.3-3.3
				c0.8-0.9,2-1.3,3.3-1.3h16.4c1.3,0,2.4,0.4,3.3,1.3s1.3,1.9,1.3,3.3v15.7c0,2.1-0.8,3.7-2.5,4.8l-7.7,5.4l7.7,5.4
				c1.7,1.1,2.5,2.8,2.5,4.9L225.1,127.6L225.1,127.6z"/>
		</g>
		<g>
			<path class="st1" d="M241.3,132.2h-5.8V87.6H233v-0.2l3.6-19.5h4.7V132.2z"/>
		</g>
		<g>
			<path class="st1" d="M277.7,127.6c0,1.3-0.4,2.4-1.3,3.3c-0.8,0.9-2,1.3-3.3,1.3h-16.6c-1.3,0-2.4-0.4-3.3-1.3
				c-0.8-0.8-1.3-1.9-1.3-3.3v-16.3h5.7v15.8h14.2v-19.7l-11.3-8.5v-1.3l11.3-8.4V72.9h-14.1v14.5h-5.7v-15c0-1.3,0.4-2.4,1.3-3.3
				s2-1.3,3.3-1.3h16.4c1.3,0,2.4,0.4,3.3,1.3s1.3,1.9,1.3,3.3v15.7c0,2.1-0.8,3.7-2.5,4.8l-7.7,5.4l7.7,5.4
				c1.7,1.1,2.5,2.8,2.5,4.9L277.7,127.6L277.7,127.6z"/>
		</g>
	</g>
</g>
</svg>
